<?xml version="1.0" standalone="no"?>
<!DOCTYPE svg PUBLIC "-//W3C//DTD SVG 20010904//EN"
 "http://www.w3.org/TR/2001/REC-SVG-20010904/DTD/svg10.dtd">
<svg version="1.0" xmlns="http://www.w3.org/2000/svg"
 width="73.000000pt" height="80.000000pt" viewBox="0 0 73.000000 80.000000"
 preserveAspectRatio="xMidYMid meet">

<g transform="translate(0.000000,80.000000) scale(0.100000,-0.100000)"
fill="#000000" stroke="none">
<path d="M150 735 l-44 -45 84 2 85 2 -74 3 -74 4 38 39 c22 22 37 40 34 40
-3 0 -25 -20 -49 -45z"/>
<path d="M580 486 c0 -10 -9 -16 -25 -16 -22 0 -25 -4 -25 -40 0 -36 3 -40 25
-40 16 0 25 -6 25 -16 0 -11 11 -6 40 18 22 18 40 36 40 40 0 3 -18 21 -40 38
-30 24 -40 28 -40 16z"/>
<path d="M503 430 c0 -25 2 -35 4 -22 2 12 2 32 0 45 -2 12 -4 2 -4 -23z"/>
<path d="M83 113 c37 -2 96 -2 130 0 34 2 4 3 -68 3 -72 0 -99 -1 -62 -3z"/>
<path d="M30 96 c0 -2 8 -10 18 -17 15 -13 16 -12 3 4 -13 16 -21 21 -21 13z"/>
<path d="M85 30 c10 -11 20 -20 23 -20 3 0 -3 9 -13 20 -10 11 -20 20 -23 20
-3 0 3 -9 13 -20z"/>
</g>
</svg>
