<?xml version="1.0" standalone="no"?>
<!DOCTYPE svg PUBLIC "-//W3C//DTD SVG 20010904//EN"
 "http://www.w3.org/TR/2001/REC-SVG-20010904/DTD/svg10.dtd">
<svg version="1.0" xmlns="http://www.w3.org/2000/svg"
 width="237.000000pt" height="237.000000pt" viewBox="0 0 237.000000 237.000000"
 preserveAspectRatio="xMidYMid meet">

<g transform="translate(0.000000,237.000000) scale(0.100000,-0.100000)"
fill="#000000" stroke="none">
<path d="M1015 2355 c-256 -40 -477 -150 -658 -328 -572 -563 -430 -1517 282
-1890 456 -239 1019 -153 1381 213 187 189 294 402 335 670 55 357 -70 733
-329 995 -267 269 -648 397 -1011 340z m361 -30 c772 -133 1193 -972 836
-1668 -260 -509 -852 -748 -1396 -566 -669 224 -981 995 -658 1624 168 327
486 556 852 614 90 14 271 12 366 -4z"/>
<path d="M1029 2233 c-22 -24 -24 -29 -7 -14 16 14 30 23 32 20 2 -2 1 -20 -2
-39 -4 -29 -6 -32 -13 -15 -8 19 -8 19 -15 -2 -7 -26 -24 -31 -24 -8 0 8 -6
15 -14 15 -9 0 -12 -8 -8 -25 4 -25 22 -45 22 -26 0 6 5 11 11 11 6 0 8 -7 5
-15 -6 -17 12 -115 23 -128 11 -11 63 11 56 23 -4 6 -16 8 -27 4 -17 -5 -20
-3 -15 10 4 9 10 23 13 31 4 10 0 15 -10 15 -20 0 -21 23 -2 53 16 26 31 127
18 127 -4 0 -24 -17 -43 -37z"/>
<path d="M905 2175 l-30 -24 28 -1 c22 0 27 -5 27 -24 0 -13 -10 -30 -22 -39
l-23 -16 22 0 c19 -1 21 -5 16 -36 -7 -44 4 -45 21 -2 13 34 13 160 -1 164 -4
2 -21 -8 -38 -22z"/>
<path d="M1467 2164 c9 -27 24 -34 44 -23 21 11 39 12 39 2 -1 -5 -23 -25 -50
-46 -33 -25 -63 -39 -94 -43 -49 -7 -57 -17 -27 -34 14 -7 31 -6 61 5 24 8 58
15 76 15 25 0 34 4 34 16 0 10 -6 14 -15 10 -27 -10 -16 12 21 42 42 35 39 47
-13 56 -21 3 -48 9 -61 12 -19 5 -21 3 -15 -12z"/>
<path d="M558 2034 c-11 -17 -21 -79 -19 -106 1 -16 -2 -28 -8 -28 -10 0 -24
55 -21 81 4 29 0 40 -12 32 -7 -4 -21 -6 -30 -5 -21 4 -22 -5 -4 -37 12 -21
12 -32 0 -70 -8 -26 -14 -47 -14 -48 0 -2 6 -3 14 -3 8 0 17 15 20 35 4 19 10
35 14 35 10 0 32 -51 26 -61 -3 -5 -2 -9 3 -9 18 0 49 105 34 114 -5 3 -7 15
-4 25 4 16 14 7 55 -46 39 -51 47 -67 37 -74 -10 -6 -4 -9 19 -9 17 0 32 4 32
9 0 5 -24 35 -52 68 -29 32 -60 69 -69 83 -8 13 -18 19 -21 14z"/>
<path d="M1901 1935 c-19 -33 -23 -35 -61 -29 -44 7 -57 -10 -17 -25 20 -8 19
-9 -18 -20 -22 -6 -53 -11 -70 -12 -16 0 -39 -5 -50 -10 -14 -6 3 -8 55 -6 52
3 88 11 118 26 23 12 47 19 52 16 6 -3 15 -3 21 1 8 5 8 9 -1 14 -9 6 -8 13 4
32 14 22 14 27 2 37 -11 9 -18 5 -35 -24z"/>
<path d="M1010 1910 c-147 -36 -266 -106 -368 -215 -125 -133 -191 -287 -200
-466 -10 -221 58 -406 206 -562 91 -95 286 -209 330 -192 21 8 7 18 -53 40
-153 54 -306 195 -380 349 -59 124 -79 221 -72 350 5 90 38 236 54 236 3 0 3
-9 0 -19 -4 -18 14 -24 29 -8 4 4 81 7 170 7 108 0 165 4 170 11 5 8 9 8 14
-1 6 -9 13 -9 31 3 22 14 27 13 57 -3 21 -11 28 -20 20 -24 -7 -3 0 -3 15 -1
23 3 37 -4 70 -38 23 -24 32 -31 20 -17 -13 14 -23 29 -23 33 0 13 -52 57 -68
57 -19 0 -132 52 -132 61 0 9 87 99 97 99 5 0 16 26 24 58 14 51 18 57 40 54
13 -1 46 -13 73 -26 44 -22 51 -23 71 -10 19 13 117 46 121 41 0 -1 6 -23 13
-50 9 -36 25 -61 66 -103 30 -30 55 -59 55 -64 0 -5 -10 -12 -22 -16 -13 -3
-35 -15 -50 -25 -14 -11 -39 -20 -55 -21 -27 -2 -43 -13 -43 -32 0 -5 7 -3 15
4 8 7 15 10 15 6 0 -3 17 1 38 9 23 9 31 10 21 2 -13 -10 30 -11 220 -8 134 2
239 7 242 13 13 20 51 -130 56 -223 12 -208 -54 -384 -201 -537 -65 -68 -171
-139 -251 -167 -60 -22 -74 -32 -53 -40 38 -15 211 81 303 167 253 236 309
624 134 921 -79 134 -220 256 -359 313 -138 56 -318 69 -460 34z"/>
<path d="M566 1884 c-4 -10 -1 -14 6 -12 15 5 23 28 10 28 -5 0 -13 -7 -16
-16z"/>
<path d="M596 1874 c-11 -28 -6 -42 16 -47 30 -8 35 -1 14 22 -10 11 -15 25
-11 30 3 6 2 11 -3 11 -6 0 -13 -7 -16 -16z"/>
<path d="M1846 1818 c-5 -27 -2 -36 16 -50 13 -9 23 -16 24 -15 4 5 -21 97
-27 97 -4 0 -9 -15 -13 -32z"/>
<path d="M530 1823 c1 -5 12 -21 25 -38 20 -24 27 -27 37 -17 11 11 8 18 -15
38 -28 24 -47 31 -47 17z"/>
<path d="M1052 1653 c-9 -31 -8 -35 11 -42 15 -6 27 -4 39 6 18 16 38 10 38
-12 0 -8 -8 -19 -17 -25 -17 -11 -17 -11 1 -6 10 4 26 1 34 -6 12 -10 14 -10
8 0 -4 7 -2 12 5 12 8 0 8 4 -1 15 -7 8 -10 21 -7 29 6 16 -30 44 -73 56 -25
7 -28 5 -38 -27z"/>
<path d="M1269 1680 c-49 -14 -74 -37 -74 -70 0 -16 3 -30 8 -30 4 0 11 0 17
0 5 0 7 6 4 13 -3 8 2 19 9 26 12 9 18 9 29 -2 9 -10 21 -11 36 -6 18 7 21 13
16 36 -9 37 -15 42 -45 33z"/>
<path d="M174 1646 c-3 -8 -1 -23 5 -35 16 -30 15 -46 -3 -32 -10 9 -16 9 -21
1 -8 -12 32 -56 42 -46 11 10 43 -15 43 -34 0 -10 5 -22 10 -25 6 -4 10 9 10
31 0 31 2 35 15 24 8 -7 15 -24 15 -39 0 -53 13 -101 26 -101 18 0 17 8 -1 60
-20 57 -19 69 4 63 12 -3 23 -17 26 -34 4 -16 11 -29 17 -29 6 0 8 11 4 26 -6
23 -5 24 16 13 13 -7 26 -17 30 -23 5 -8 10 -8 19 1 17 17 4 30 -36 37 -27 5
-35 12 -35 29 -1 20 -2 20 -13 5 -23 -29 -47 -4 -47 48 0 55 -20 51 -21 -4 0
-30 -2 -33 -9 -17 -5 11 -12 34 -16 50 -5 21 -8 25 -11 12 -3 -9 -9 -15 -14
-12 -5 4 -9 2 -9 -4 0 -5 4 -12 9 -15 5 -3 9 -17 9 -32 0 -23 -2 -24 -15 -11
-8 8 -17 33 -20 56 -6 44 -19 62 -29 37z"/>
<path d="M2117 1607 c-20 -30 -40 -37 -30 -9 6 15 5 15 -10 3 -23 -18 -21 -31
2 -31 24 0 36 -16 19 -23 -10 -4 -10 -6 0 -6 7 -1 10 -5 7 -11 -3 -5 2 -10 12
-11 10 0 13 -3 6 -5 -6 -3 -31 7 -55 22 l-43 27 24 -27 c17 -18 20 -26 10 -26
-8 0 -1 -7 15 -15 34 -18 50 -19 40 -4 -5 8 8 9 45 4 41 -5 51 -4 51 7 0 8
-11 21 -25 28 -36 19 -31 31 11 28 23 -2 39 2 41 10 4 9 -5 11 -34 6 -41 -6
-58 4 -64 40 -4 18 -6 17 -22 -7z m60 -94 c3 -7 -4 -9 -16 -6 -12 3 -18 9 -15
15 7 11 26 6 31 -9z"/>
<path d="M980 1553 l-21 -27 23 -18 c32 -24 66 -22 89 5 24 28 24 44 0 57 -34
18 -68 12 -91 -17z"/>
<path d="M1286 1564 c-21 -21 -20 -27 7 -52 28 -26 49 -28 87 -5 l28 16 -21
29 c-24 32 -75 39 -101 12z"/>
<path d="M1940 1562 c0 -6 14 -21 31 -33 l31 -22 -27 -15 c-23 -12 -29 -12
-36 0 -6 9 -9 7 -9 -9 0 -27 22 -30 60 -8 29 16 44 19 36 6 -6 -8 23 -25 30
-18 10 10 -24 56 -51 67 -16 7 -38 20 -47 28 -11 9 -18 10 -18 4z"/>
<path d="M1099 1494 c-16 -19 -1 -47 27 -53 10 -1 27 -10 36 -18 9 -8 22 -12
27 -8 16 9 13 25 -3 19 -8 -3 -16 -2 -19 3 -3 5 18 8 46 8 49 0 52 2 55 27 4
33 -28 47 -61 25 -20 -13 -27 -13 -48 -1 -32 18 -44 17 -60 -2z"/>
<path d="M950 1440 c-17 -10 -13 -15 17 -24 12 -4 24 -2 27 3 9 14 -27 31 -44
21z"/>
<path d="M1259 1393 c-13 -16 -12 -17 4 -4 9 7 17 15 17 17 0 8 -8 3 -21 -13z"/>
<path d="M1065 1390 c3 -5 8 -10 11 -10 2 0 4 5 4 10 0 6 -5 10 -11 10 -5 0
-7 -4 -4 -10z"/>
<path d="M1199 1373 c-13 -16 -12 -17 4 -4 9 7 17 15 17 17 0 8 -8 3 -21 -13z"/>
<path d="M1240 1366 c0 -2 8 -10 18 -17 15 -13 16 -12 3 4 -13 16 -21 21 -21
13z"/>
<path d="M225 1059 c-41 -37 -65 -44 -65 -17 0 6 8 17 18 25 16 13 16 14 -3
11 -15 -2 -20 -11 -20 -33 0 -48 38 -46 84 4 26 28 44 39 55 35 17 -7 23 -44
6 -44 -5 0 -10 -5 -10 -10 0 -7 6 -7 20 0 35 19 19 70 -22 70 -10 0 -38 -18
-63 -41z"/>
<path d="M2050 1091 c0 -5 14 -14 31 -21 33 -14 24 -30 -18 -30 -13 0 -23 -4
-23 -10 0 -12 4 -12 58 0 26 6 57 7 82 1 22 -5 40 -5 40 -1 0 9 -25 20 -48 20
-9 0 -41 11 -69 25 -29 13 -53 20 -53 16z"/>
<path d="M215 996 c-39 -17 -57 -39 -49 -61 6 -15 16 -17 66 -12 71 6 111 29
106 60 -3 18 -10 22 -48 24 -25 2 -59 -3 -75 -11z m105 -6 c13 -9 13 -12 -4
-25 -27 -20 -117 -38 -130 -25 -15 15 5 31 61 46 60 16 55 16 73 4z"/>
<path d="M2040 995 c-7 -8 -10 -22 -6 -30 14 -36 140 -61 164 -32 17 20 7 51
-19 58 -45 13 -59 10 -59 -12 0 -18 3 -19 15 -9 17 14 55 4 55 -16 0 -23 -27
-28 -83 -13 -34 9 -53 20 -55 32 -2 10 3 17 12 17 9 0 16 5 16 10 0 15 -26 12
-40 -5z"/>
<path d="M280 916 c-36 -12 -71 -25 -77 -29 -18 -11 -16 -42 3 -58 13 -10 27
-9 83 9 80 26 81 26 81 8 0 -8 -30 -26 -67 -42 -38 -15 -72 -31 -77 -36 -18
-15 13 -8 79 18 36 14 72 24 80 20 20 -7 19 9 -2 45 -21 34 -19 34 -83 9 -64
-25 -93 -26 -88 -3 2 12 26 26 68 41 35 13 66 25 69 27 13 13 -11 10 -69 -9z"/>
<path d="M2023 923 c-22 -9 -15 -51 12 -69 36 -23 95 -42 116 -37 21 6 31 27
22 48 -11 30 -119 71 -150 58z m68 -25 c47 -14 78 -43 62 -59 -8 -8 -25 -7
-61 5 -53 18 -78 38 -67 56 8 13 19 13 66 -2z"/>
<path d="M1980 833 c0 -8 141 -93 153 -93 3 0 10 14 16 30 11 33 -1 42 -15 10
-9 -18 -12 -18 -77 20 -73 42 -77 44 -77 33z"/>
<path d="M1954 775 c-7 -30 4 -46 62 -86 48 -33 66 -36 84 -14 20 24 -2 60
-57 95 -58 37 -81 38 -89 5z m92 -25 c45 -32 60 -70 27 -70 -37 0 -123 76
-106 94 13 12 35 5 79 -24z"/>
<path d="M331 753 c-81 -37 -87 -40 -79 -49 3 -3 24 4 45 15 39 19 39 19 51 0
16 -24 11 -33 -28 -49 -16 -7 -30 -16 -30 -21 0 -14 9 -11 87 32 73 40 93 64
34 39 -16 -6 -35 -9 -40 -5 -21 12 -11 35 21 48 18 7 28 16 23 19 -6 3 -44
-10 -84 -29z"/>
<path d="M1930 732 c0 -6 19 -27 42 -46 48 -42 45 -44 -17 -14 -75 37 -75 11
0 -56 75 -66 101 -71 31 -5 -26 23 -45 44 -42 46 2 2 27 -7 55 -21 58 -30 80
-34 61 -11 -26 31 -130 117 -130 107z"/>
<path d="M444 655 c-36 -15 -94 -68 -94 -87 1 -35 47 -53 57 -21 3 7 -3 9 -16
6 -50 -13 -10 51 52 83 34 18 51 10 43 -22 -8 -29 -1 -31 14 -5 21 41 -9 66
-56 46z"/>
<path d="M1897 628 c25 -27 29 -36 20 -50 -11 -16 -15 -15 -44 14 -56 54 -36
10 24 -53 61 -64 89 -79 48 -25 -15 20 -23 40 -19 50 8 22 16 20 44 -9 13 -14
28 -25 34 -25 6 0 -19 29 -54 65 -64 65 -111 94 -53 33z"/>
<path d="M463 559 c-65 -53 -90 -92 -29 -45 39 30 54 32 62 11 4 -9 -6 -25
-25 -41 -38 -32 -34 -45 4 -16 57 45 107 94 101 99 -3 4 -17 -4 -31 -17 -23
-22 -27 -22 -41 -8 -14 14 -13 17 10 36 26 20 33 32 19 32 -5 -1 -36 -23 -70
-51z"/>
<path d="M1812 578 c-19 -19 -14 -46 18 -94 39 -56 67 -72 87 -51 17 17 11 67
-8 67 -7 0 -8 -7 -4 -17 11 -29 11 -35 -2 -40 -24 -9 -101 95 -88 118 4 5 16
7 28 3 19 -6 20 -5 8 10 -16 19 -23 20 -39 4z"/>
<path d="M1759 534 c-7 -9 -33 -30 -58 -47 -40 -28 -43 -32 -24 -35 15 -2 34
-23 59 -65 45 -74 43 -72 50 -65 3 3 -13 36 -35 72 -47 75 -46 73 -27 91 12
12 20 5 55 -55 23 -39 45 -70 50 -70 11 0 45 39 39 45 -3 3 -11 -1 -18 -10
-18 -22 -26 -19 -40 15 -10 23 -10 33 -1 44 8 9 8 16 2 20 -5 4 -13 2 -16 -4
-5 -8 -11 -7 -21 1 -19 15 -18 39 3 54 10 7 12 14 6 18 -6 4 -17 0 -24 -9z"/>
<path d="M528 480 c-35 -32 -58 -59 -53 -59 15 0 142 118 128 119 -7 0 -41
-27 -75 -60z"/>
<path d="M560 455 c-39 -39 -58 -65 -48 -65 8 0 31 18 51 40 19 22 38 40 42
40 4 0 -7 -25 -25 -56 -17 -31 -29 -59 -25 -62 3 -3 35 23 70 58 36 36 61 66
55 68 -6 2 -24 -10 -39 -27 -38 -42 -44 -39 -18 9 15 27 19 42 12 49 -8 8 -31
-9 -75 -54z"/>
<path d="M1043 497 c0 -7 -2 -26 -6 -42 l-6 -30 14 30 c16 34 19 55 7 55 -5 0
-9 -6 -9 -13z"/>
<path d="M1117 503 c-11 -10 -8 -41 3 -48 7 -4 9 2 4 19 -3 15 -2 26 4 26 18
0 21 -27 6 -56 l-15 -29 22 22 c16 16 20 28 15 47 -6 25 -25 34 -39 19z"/>
<path d="M1219 502 c22 -15 24 -70 3 -76 -13 -4 -12 -4 3 -3 16 2 20 10 20 42
0 32 -4 40 -20 43 -15 2 -17 1 -6 -6z"/>
<path d="M1310 503 c0 -5 5 -15 10 -23 7 -11 5 -17 -8 -22 -16 -6 -16 -7 1 -7
9 -1 17 -6 17 -13 0 -6 3 -9 6 -6 8 9 -7 78 -17 78 -5 0 -9 -3 -9 -7z"/>
<path d="M649 394 c-37 -35 -64 -66 -59 -69 4 -2 17 7 30 20 18 19 26 22 36
14 11 -9 11 -16 -1 -39 -8 -15 -11 -31 -7 -34 3 -4 23 30 44 75 21 46 35 86
31 90 -5 5 -38 -21 -74 -57z m51 19 c-1 -15 -30 -46 -37 -40 -3 4 2 16 12 27
19 21 25 24 25 13z"/>
<path d="M1595 418 c-11 -6 -22 -12 -24 -14 -2 -2 11 -40 29 -84 34 -85 50
-101 29 -30 -12 39 -11 44 7 57 18 15 18 15 -7 9 -37 -8 -49 31 -16 56 25 20
13 23 -18 6z"/>
<path d="M771 395 c-36 -93 -42 -115 -39 -136 2 -18 9 -24 28 -24 21 0 28 9
46 55 30 77 39 107 26 95 -5 -5 -20 -38 -32 -72 -21 -58 -40 -77 -54 -54 -3 5
6 39 19 76 14 37 24 73 22 79 -3 6 -10 -2 -16 -19z"/>
<path d="M1510 375 c-24 -29 25 -169 56 -163 31 6 39 33 26 85 -23 84 -53 113
-82 78z m54 -47 c23 -61 24 -91 5 -96 -12 -2 -21 10 -33 44 -9 26 -16 58 -16
71 0 38 27 26 44 -19z"/>
<path d="M850 373 c0 -4 -11 -43 -24 -85 -14 -43 -21 -78 -16 -78 5 0 17 28
28 63 l20 62 1 -72 c1 -40 5 -73 10 -73 5 0 18 35 30 78 24 88 25 95 12 88 -5
-4 -12 -24 -16 -46 -9 -56 -21 -50 -20 12 0 32 -5 53 -12 55 -7 3 -13 1 -13
-4z"/>
<path d="M917 272 c-20 -89 -20 -95 -8 -88 4 3 14 34 20 68 7 35 14 71 17 81
3 9 1 17 -4 17 -5 0 -16 -35 -25 -78z"/>
<path d="M962 258 c-2 -103 7 -123 26 -60 7 20 18 58 26 85 8 26 11 47 7 47
-5 0 -14 -21 -21 -47 -20 -74 -25 -73 -31 2 -5 69 -5 69 -7 -27z"/>
<path d="M1427 343 c-4 -3 -7 -20 -8 -37 l0 -31 -16 33 c-9 17 -20 32 -25 32
-11 0 -11 -3 16 -57 13 -26 27 -65 30 -86 4 -21 11 -35 16 -32 4 3 4 21 -2 42
-5 20 -7 60 -3 90 6 52 5 60 -8 46z"/>
<path d="M1037 288 c-4 -24 -9 -64 -13 -90 -5 -39 -3 -48 9 -48 8 0 22 -3 31
-6 9 -3 16 -1 16 5 0 6 -9 11 -20 11 -16 0 -20 7 -20 35 0 28 4 35 20 35 11 0
20 5 20 10 0 6 -7 10 -15 10 -10 0 -15 10 -15 31 0 28 2 31 25 25 14 -4 25 -2
25 3 0 7 -32 20 -51 21 -4 0 -9 -19 -12 -42z"/>
<path d="M1295 320 c-3 -5 0 -10 8 -10 10 0 18 -22 26 -77 16 -104 25 -107 16
-4 -5 65 -4 86 7 92 9 6 2 9 -19 9 -17 0 -35 -4 -38 -10z"/>
<path d="M1112 228 c1 -51 3 -74 5 -50 2 23 8 42 13 42 10 0 20 -25 20 -50 0
-10 5 -22 11 -26 8 -5 9 6 4 35 -4 26 -2 53 5 71 15 37 -1 70 -35 70 -25 0
-25 0 -23 -92z m43 41 c0 -13 -6 -24 -12 -24 -7 0 -13 3 -13 8 0 4 0 16 0 28
0 12 5 19 13 17 6 -3 12 -16 12 -29z"/>
<path d="M1202 308 c-21 -21 -14 -66 14 -84 18 -12 24 -24 22 -43 -4 -33 -30
-34 -38 -1 -3 14 -9 20 -12 15 -10 -17 10 -55 30 -55 49 0 57 59 12 92 -31 22
-39 51 -18 64 6 4 16 0 23 -9 13 -19 25 -22 25 -8 0 11 -28 41 -39 41 -4 0
-12 -5 -19 -12z"/>
<path d="M1271 294 c-1 -52 11 -154 19 -154 9 0 0 138 -11 165 -6 17 -8 15 -8
-11z"/>
</g>
</svg>
